<svg width="32" height="33" viewBox="0 0 32 33" xmlns="http://www.w3.org/2000/svg"><title>AAL icon</title><defs><filter x="-50%" y="-50%" width="200%" height="200%" filterUnits="objectBoundingBox" id="a"><feOffset dy="3" in="SourceAlpha" result="shadowOffsetOuter1"/><feGaussianBlur stdDeviation="1" in="shadowOffsetOuter1" result="shadowBlurOuter1"/><feColorMatrix values="0 0 0 0 0.773782951 0 0 0 0 0.773782951 0 0 0 0 0.773782951 0 0 0 0.5 0" in="shadowBlurOuter1" result="shadowMatrixOuter1"/><feMerge><feMergeNode in="shadowMatrixOuter1"/><feMergeNode in="SourceGraphic"/></feMerge></filter></defs><g filter="url(#a)" transform="translate(-24 -303)" fill="#4A4A4A"><path d="M46.404 328.644l5.02 1.81c1.276.411 2.468-.825 2.01-2.085l-1.939-4.206a13.447 13.447 0 0 0 2.037-7.13c0-7.457-6.043-13.5-13.499-13.5-7.457 0-13.5 6.043-13.5 13.5 0 7.455 6.044 13.499 13.5 13.499 2.455 0 4.303-.659 6.371-1.888zm5.128-11.611c0 2.965-.88 4.534-2.007 6.345l-.257.413.166.458 2.098 4.283-4.547-1.972-.43-.138-.388.23c-1.761 1.047-3.27 1.88-6.134 1.88-6.352 0-11.5-5.149-11.5-11.5s5.147-11.498 11.5-11.498c6.352 0 11.499 5.147 11.499 11.499z"/><path d="M42.063 325.366h-4.166v-4.168h4.166v4.168zm3.906-10.808c-.303.658-.781 1.303-1.824 1.953-.532.334-1.42.84-1.823 1.303-.228.262-.26.76-.26 1.302h-4.165s0-.87.26-1.737c.284-.95 1.437-2.088 2.584-2.963.61-.458.916-.878.916-1.26 0-.383-.123-.679-.37-.89-.245-.212-.615-.317-1.112-.317-.536 0-.979.16-1.33.488-.35.328-.576.897-.674 1.708l-4.389-.5c.151-1.485.738-2.683 1.76-3.587 1.022-.905 2.588-1.359 4.698-1.359 1.645 0 2.973.318 3.983.947 1.372.854 2.06 1.993 2.06 3.416 0 .59-.047.916-.314 1.496z"/></g></svg>