<svg width="21" height="25" viewBox="0 0 21 25" xmlns="http://www.w3.org/2000/svg"><title>Group</title><g fill="#333" fill-rule="evenodd"><path d="M3.553 17.328h12.885v-1.563H3.553v1.563zm0 3.244h12.885V19.01H3.553v1.561zm0-6.37h12.885V12.64H3.553v1.562zm0-4.687v1.563h12.885V9.514H3.553zM3.58 5.51v1.562h8.143V5.51H3.58z"/><path d="M1.716 1.562H12.79c.432 0 1.043.35 1.043.782v1.563c0 .799.045 1.468.656 2.079.61.61 1.28.655 2.08.655h1.563c.432 0 .782.61.782 1.041v15.755H1.716V1.563zM.152 23.437c0 .4.153.801.459 1.105.305.305.704.458 1.105.458h17.198a1.561 1.561 0 0 0 1.564-1.562V7.813c0-.998-.4-1.962-1.105-2.668l-4.044-4.04A3.787 3.787 0 0 0 12.66 0H1.716c-.4 0-.8.152-1.105.458a1.555 1.555 0 0 0-.459 1.105v21.875z"/></g></svg>