<svg width="27" height="30" viewBox="0 0 27 30" xmlns="http://www.w3.org/2000/svg"><title>icon_doc stack_drkgrey</title><defs><filter x="-50%" y="-50%" width="200%" height="200%" filterUnits="objectBoundingBox" id="a"><feOffset dy="3" in="SourceAlpha" result="shadowOffsetOuter1"/><feGaussianBlur stdDeviation="1" in="shadowOffsetOuter1" result="shadowBlurOuter1"/><feColorMatrix values="0 0 0 0 0.773782951 0 0 0 0 0.773782951 0 0 0 0 0.773782951 0 0 0 0.5 0" in="shadowBlurOuter1" result="shadowMatrixOuter1"/><feMerge><feMergeNode in="shadowMatrixOuter1"/><feMergeNode in="SourceGraphic"/></feMerge></filter></defs><path d="M20.238 25H5.952a2.381 2.381 0 0 1-2.38-2.381v-1.19H2.38A2.381 2.381 0 0 1 0 19.048V2.38A2.381 2.381 0 0 1 2.381 0h14.286a2.381 2.381 0 0 1 2.38 2.381v1.19h1.191a2.381 2.381 0 0 1 2.381 2.381V22.62a2.381 2.381 0 0 1-2.38 2.38zM16.667 2.381H2.38v16.667h14.286V2.38zm3.571 3.571h-1.19v13.096a2.381 2.381 0 0 1-2.381 2.38H5.952v1.191h14.286V5.952zm-5.952 0H4.762v-1.19h9.524v1.19zm0 2.381H4.762v-1.19h9.524v1.19zm-4.762 2.381H4.762v-1.19h4.762v1.19z" transform="translate(2)" filter="url(#a)" fill="#333" fill-rule="evenodd"/></svg>