<svg xmlns="http://www.w3.org/2000/svg" width="25" height="25" viewBox="0 0 25 25"><path fill="#FFF" d="M12.5 24.5c-6.617 0-12-5.383-12-12s5.383-12 12-12 12 5.383 12 12-5.383 12-12 12z"/><path fill="#9D9D9D" d="M12.5 1C18.841 1 24 6.159 24 12.5S18.841 24 12.5 24 1 18.842 1 12.5 6.159 1 12.5 1m0-1C5.597 0 0 5.596 0 12.5S5.597 25 12.5 25 25 19.404 25 12.5 19.403 0 12.5 0z"/><path fill="#D68028" d="M12.5 18.327a6.043 6.043 0 0 1-6.036-6.035c0-3.328 2.708-6.036 6.036-6.036s6.036 2.708 6.036 6.036a6.043 6.043 0 0 1-6.036 6.035z"/><path fill="#D07328" d="M12.5 6.72c3.072 0 5.571 2.5 5.571 5.572 0 3.071-2.499 5.57-5.571 5.57s-5.571-2.499-5.571-5.57A5.578 5.578 0 0 1 12.5 6.72m0-.928a6.5 6.5 0 1 0 0 13 6.5 6.5 0 0 0 0-13z"/></svg>