<svg width="29" height="30" viewBox="0 0 29 30" xmlns="http://www.w3.org/2000/svg"><title>icon-doc-sign-ready-drkgrey</title><defs><filter x="-50%" y="-50%" width="200%" height="200%" filterUnits="objectBoundingBox" id="a"><feOffset dy="3" in="SourceAlpha" result="shadowOffsetOuter1"/><feGaussianBlur stdDeviation="1" in="shadowOffsetOuter1" result="shadowBlurOuter1"/><feColorMatrix values="0 0 0 0 0.773782951 0 0 0 0 0.773782951 0 0 0 0 0.773782951 0 0 0 0.5 0" in="shadowBlurOuter1" result="shadowMatrixOuter1"/><feMerge><feMergeNode in="shadowMatrixOuter1"/><feMergeNode in="SourceGraphic"/></feMerge></filter></defs><g filter="url(#a)" transform="translate(-25 -261)" fill="#333" fill-rule="evenodd"><path d="M50.228 266.145l-4.042-4.04a3.783 3.783 0 0 0-2.67-1.105h-10.94a1.56 1.56 0 0 0-1.563 1.563v9.621l1.563.005v-9.627h10.94c.433 0 1.043.35 1.043.782v1.562c0 .8.045 1.6.655 2.21.61.61 1.412.655 2.212.655h1.562c.432 0 .782.611.782 1.042v15.624H32.576l.007-1.686h-1.57v1.686A1.56 1.56 0 0 0 32.576 286H49.77a1.56 1.56 0 0 0 1.562-1.563v-15.624c0-.999-.397-1.961-1.104-2.668z"/><path d="M30.343 277.378l-2.67-3.724h2.918l1.417 2.175 1.369-2.175h2.753l-2.605 3.725 3.083 4.284h-2.919l-1.747-2.67-1.88 2.67h-2.885zm7.006 2.483h10.634v1.849H37.349z"/></g></svg>